<?xml version="1.0" encoding="UTF-8"?>
<svg version="1.1" xmlns="http://www.w3.org/2000/svg" width="296" height="294">
<path d="M0 0 C97.68 0 195.36 0 296 0 C296 97.02 296 194.04 296 294 C198.32 294 100.64 294 0 294 C0 196.98 0 99.96 0 0 Z " fill="#FD572D" transform="translate(0,0)"/>
<path d="M0 0 C0.69738281 0.30679688 1.39476562 0.61359375 2.11328125 0.9296875 C2.86867188 1.23648438 3.6240625 1.54328125 4.40234375 1.859375 C5.93781304 2.5767178 7.46507511 3.31166012 8.98828125 4.0546875 C13.18935925 5.34732689 17.28050906 4.38976173 21.48828125 3.2421875 C30.34239205 1.24287216 36.18109378 5.522924 43.4296875 10.05859375 C47.03211806 12.41102431 47.03211806 12.41102431 48.42578125 13.8046875 C48.47897198 15.51270086 48.51819347 17.22115687 48.55078125 18.9296875 C49.00416764 24.40574502 50.39943348 26.71764019 54.453125 30.296875 C56.37150289 31.80795458 56.37150289 31.80795458 58.3046875 33 C64.40731199 37.19143539 65.13975588 43.17389805 66.50390625 50.02734375 C68.3623877 57.64239274 72.1172149 60.34371214 78.42578125 64.4296875 C79.86517825 65.37733321 81.30274901 66.32775995 82.73828125 67.28125 C83.37378906 67.69455566 84.00929687 68.10786133 84.6640625 68.53369141 C86.4742976 69.83968973 87.97505114 71.10652489 89.42578125 72.8046875 C90.05851736 76.87227675 89.68685419 78.41703373 87.36328125 81.8671875 C85.11015188 84.62191 85.11015188 84.62191 85.67578125 87.6796875 C85.92328125 88.3809375 86.17078125 89.0821875 86.42578125 89.8046875 C87.74578125 90.1346875 89.06578125 90.4646875 90.42578125 90.8046875 C90.60520288 94.75196338 90.51928814 97.4027388 88.42578125 100.8046875 C89.41578125 101.4646875 90.40578125 102.1246875 91.42578125 102.8046875 C91.86328125 105.1796875 91.86328125 105.1796875 91.42578125 107.8046875 C90.76578125 108.36671875 90.10578125 108.92875 89.42578125 109.5078125 C86.6339861 112.71401475 86.99246489 114.98767557 86.98828125 119.1796875 C86.71847474 127.48992728 86.71847474 127.48992728 84.36328125 130.6171875 C78.40029096 135.05771218 71.11936399 135.14850511 63.92578125 135.4296875 C63.10335937 135.46835938 62.2809375 135.50703125 61.43359375 135.546875 C59.43131115 135.64000442 57.42857863 135.72337735 55.42578125 135.8046875 C53.23533786 139.44456926 52.72091977 143.2245861 52.13671875 147.359375 C51.97449326 148.46637253 51.97449326 148.46637253 51.80899048 149.59573364 C51.58200667 151.16031754 51.35865123 152.72543154 51.13867188 154.29101562 C50.8065794 156.63869825 50.45685166 158.98326269 50.10546875 161.328125 C47.04497594 177.17243197 47.04497594 177.17243197 50.42578125 191.9296875 C56.54452623 195.75390311 62.84175027 198.47151088 69.6953125 200.6796875 C70.45696213 200.93089355 71.21861176 201.18209961 72.00334167 201.44091797 C74.41313672 202.23462037 76.82552116 203.02005007 79.23828125 203.8046875 C114.33831761 215.29545418 114.33831761 215.29545418 119.80078125 224.1796875 C124.58632198 234.85512452 126.42578125 245.08473857 126.42578125 256.8046875 C45.24578125 256.8046875 -35.93421875 256.8046875 -119.57421875 256.8046875 C-117.29566076 245.41189753 -112.14692938 231.88948495 -103.57421875 223.8046875 C-97.07085898 219.54426871 -89.76447888 216.39386349 -82.76171875 213.0546875 C-81.67383057 212.53318115 -80.58594238 212.0116748 -79.46508789 211.47436523 C-71.74365508 207.79037871 -63.9751335 204.22498249 -56.11987305 200.83496094 C-44.98433882 195.94975617 -37.98746667 190.4429791 -32.63671875 179.3046875 C-32.29898438 178.61632812 -31.96125 177.92796875 -31.61328125 177.21875 C-28.36018503 170.51614421 -25.41487886 163.69113625 -22.57421875 156.8046875 C-23.67830078 156.89169922 -23.67830078 156.89169922 -24.8046875 156.98046875 C-32.81565038 157.35085673 -32.81565038 157.35085673 -36.69921875 154.5546875 C-38.57421875 151.8046875 -38.57421875 151.8046875 -39.01171875 149.6171875 C-39.19734375 149.0190625 -39.38296875 148.4209375 -39.57421875 147.8046875 C-41.5500559 147.06949228 -43.55599473 146.41396268 -45.57421875 145.8046875 C-48.76171875 144.3671875 -48.76171875 144.3671875 -51.57421875 141.8046875 C-52.3359375 139.2734375 -52.3359375 139.2734375 -52.94921875 136.3671875 C-53.83743303 132.22702378 -53.83743303 132.22702378 -56.4609375 129.046875 C-58.45920152 127.8486341 -60.48425066 126.8297037 -62.57421875 125.8046875 C-64.57421875 123.8046875 -64.57421875 123.8046875 -65.32421875 120.9921875 C-66.31900378 117.54916711 -66.31900378 117.54916711 -69.63671875 115.8046875 C-71.26171875 114.59765625 -71.26171875 114.59765625 -72.57421875 112.8046875 C-73.07124446 109.31219433 -73.14224073 105.89653834 -73.23046875 102.37109375 C-73.58129944 98.73122539 -74.34423635 96.69651083 -76.13671875 93.5546875 C-78.43800973 89.39335601 -79.54362199 86.12936877 -79.34375 81.33984375 C-78.32748588 77.99184673 -76.54730756 76.32292621 -74.13671875 73.8046875 C-69.44097457 68.71038479 -69.01113733 65.35116426 -69.13671875 58.7421875 C-69.22022 53.73418682 -69.21458087 50.75791548 -66.3515625 46.49609375 C-63.86109627 44.08268836 -61.30866785 41.93148124 -58.57421875 39.8046875 C-56.70040692 36.05706384 -56.94162053 31.27104167 -56.67578125 27.1015625 C-56.30464695 23.12905097 -56.11053817 21.35633033 -53.25 18.4140625 C-52.36699219 17.88296875 -51.48398438 17.351875 -50.57421875 16.8046875 C-49.88199219 16.38445313 -49.18976563 15.96421875 -48.4765625 15.53125 C-47.82816406 15.16773438 -47.17976563 14.80421875 -46.51171875 14.4296875 C-42.62266151 12.06690178 -40.80727289 9.73486279 -38.57421875 5.8046875 C-36.80755027 4.03801902 -34.2457005 4.65384706 -31.8515625 4.62890625 C-30.67271484 4.60505859 -29.49386719 4.58121094 -28.27929688 4.55664062 C-25.79508883 4.51414251 -23.31066491 4.48264017 -20.82617188 4.46289062 C-13.76847529 4.2982238 -6.09277491 -0.46227427 0 0 Z " fill="#050B24" transform="translate(150.57421875,37.1953125)"/>
<path d="M0 0 C5.18381321 0.02278599 8.54236292 0.321906 12.8125 3.25 C12.1525 4.9 11.4925 6.55 10.8125 8.25 C6.8125 8.25 6.8125 8.25 4.8125 7.25 C3.43907169 7.1810528 2.06247898 7.16532292 0.6875 7.1875 C-0.59125 7.208125 -1.87 7.22875 -3.1875 7.25 C-3.5175 8.9 -3.8475 10.55 -4.1875 12.25 C-3.383125 12.518125 -2.57875 12.78625 -1.75 13.0625 C0.0134375 13.6503125 0.0134375 13.6503125 1.8125 14.25 C2.57046875 14.46785156 3.3284375 14.68570313 4.109375 14.91015625 C4.89828125 15.14605469 5.6871875 15.38195312 6.5 15.625 C7.24636719 15.83898437 7.99273437 16.05296875 8.76171875 16.2734375 C11.38510149 17.52266737 12.37479334 18.73512612 13.8125 21.25 C14.47617922 24.65135602 14.4194482 27.84005468 13.8125 31.25 C11.62227082 34.07424288 9.98232793 35.66508603 6.8125 37.25 C-0.49894955 38.03738687 -5.84208397 37.74664587 -11.859375 33.34375 C-12.29765625 32.9828125 -12.7359375 32.621875 -13.1875 32.25 C-12.81640625 30.328125 -12.81640625 30.328125 -12.1875 28.25 C-10.125 27 -10.125 27 -8.1875 26.25 C-7.1665625 27.24 -7.1665625 27.24 -6.125 28.25 C-2.51439468 30.70828448 -0.47240153 30.65423599 3.8125 30.25 C4.4725 29.92 5.1325 29.59 5.8125 29.25 C5.8125 27.6 5.8125 25.95 5.8125 24.25 C4.0490625 23.6003125 4.0490625 23.6003125 2.25 22.9375 C0.77041636 22.3760977 -0.70874504 21.81358144 -2.1875 21.25 C-2.84234375 21.01023437 -3.4971875 20.77046875 -4.171875 20.5234375 C-7.91540088 19.06762188 -10.47808354 17.97049466 -12.1875 14.25 C-12.83185374 9.17571429 -12.83185374 9.17571429 -12.1875 6.25 C-9.75 3.3125 -9.75 3.3125 -7.1875 1.25 C-5.34276785 -0.59473215 -2.47539953 0.03356474 0 0 Z " fill="#E7E8EA" transform="translate(116.1875,90.75)"/>
<path d="M0 0 C3.17852316 1.64448689 5.37801764 3.75603527 7 7 C7 9.64 7 12.28 7 15 C0.73 15 -5.54 15 -12 15 C-11.01 16.98 -10.02 18.96 -9 21 C-2.68731397 21.37552165 -2.68731397 21.37552165 3 19 C3.99 19.66 4.98 20.32 6 21 C5.13362193 23.99294243 4.61361992 25.6095146 1.9375 27.3125 C-3.69746011 28.63132045 -8.20187864 28.91540724 -13.4375 26.25 C-16.7978625 23.29943781 -17.8250648 21.42526155 -18.37109375 16.9765625 C-18.57243513 6.81474455 -18.57243513 6.81474455 -15.625 3.25 C-10.82708584 -0.86249785 -6.15089379 -0.79701722 0 0 Z " fill="#E9EAEB" transform="translate(186,100)"/>
<path d="M0 0 C1.98 0 3.96 0 6 0 C6 4.95 6 9.9 6 15 C6.66 15 7.32 15 8 15 C8.33 14.01 8.66 13.02 9 12 C11.29986731 10.85006634 12.81469088 10.7683071 15.375 10.6875 C16.53128906 10.63142578 16.53128906 10.63142578 17.7109375 10.57421875 C20.91595548 11.17037397 21.96861677 12.48858188 24 15 C24.45410156 17.65722656 24.45410156 17.65722656 24.390625 20.640625 C24.37128906 22.24550781 24.37128906 22.24550781 24.3515625 23.8828125 C24.31804687 24.99398437 24.28453125 26.10515625 24.25 27.25 C24.23195312 28.37664062 24.21390625 29.50328125 24.1953125 30.6640625 C24.14820222 33.44356896 24.08243361 36.2213534 24 39 C21.69 39 19.38 39 17 39 C16.67 32.07 16.34 25.14 16 18 C13.69 18 11.38 18 9 18 C7.0243438 20.96348429 6.73623141 21.68020373 6.5859375 25.01171875 C6.54726562 25.76904297 6.50859375 26.52636719 6.46875 27.30664062 C6.4378125 28.09232422 6.406875 28.87800781 6.375 29.6875 C6.33632812 30.48478516 6.29765625 31.28207031 6.2578125 32.10351562 C6.16367506 34.06863475 6.08075368 36.0342854 6 38 C4.02 38 2.04 38 0 38 C0 25.46 0 12.92 0 0 Z " fill="#F2F2F3" transform="translate(137,89)"/>
<path d="M0 0 C1.125 3.75 1.125 3.75 0 6 C0.83084044 5.99907821 1.66168087 5.99815641 2.51769829 5.99720669 C22.75831673 5.97509716 42.99893309 5.95856197 63.23956108 5.94818783 C73.02787587 5.94303729 82.81618258 5.93601829 92.60449219 5.92456055 C101.13857597 5.91457572 109.6726539 5.90813753 118.20674336 5.90591151 C122.72309094 5.90461085 127.2394218 5.9015659 131.75576401 5.89426994 C136.01234483 5.88744976 140.26890213 5.88539519 144.5254879 5.88689232 C146.08224427 5.88661868 147.63900148 5.88464931 149.1957531 5.88079453 C157.18060061 5.86200333 165.07092784 5.94986956 173 7 C173 7.33 173 7.66 173 8 C115.25 8 57.5 8 -2 8 C-1 3 -1 3 0 0 Z " fill="#010719" transform="translate(33,286)"/>
<path d="M0 0 C0.76183594 -0.02835937 1.52367187 -0.05671875 2.30859375 -0.0859375 C5.46851392 0.56028534 6.5485835 1.89043004 8.5625 4.375 C9.01660156 7.03222656 9.01660156 7.03222656 8.953125 10.015625 C8.93378906 11.62050781 8.93378906 11.62050781 8.9140625 13.2578125 C8.88054687 14.36898437 8.84703125 15.48015625 8.8125 16.625 C8.79445312 17.75164062 8.77640625 18.87828125 8.7578125 20.0390625 C8.71070222 22.81856896 8.64493361 25.5963534 8.5625 28.375 C6.2525 28.375 3.9425 28.375 1.5625 28.375 C1.2325 21.445 0.9025 14.515 0.5625 7.375 C-1.7475 6.715 -4.0575 6.055 -6.4375 5.375 C-6.7675 4.385 -7.0975 3.395 -7.4375 2.375 C-4.37702368 0.33468245 -3.50254006 0.05906476 0 0 Z " fill="#E3E4E5" transform="translate(152.4375,99.625)"/>
<path d="M0 0 C1 1 1 1 1.25 4.375 C1 8 1 8 -0.375 9.9375 C-2 11 -2 11 -4 11 C-3.01 8.03 -2.02 5.06 -1 2 C-6.35231932 4.39544361 -7.90681672 7.93511921 -10.25 13 C-10.600625 13.72445312 -10.95125 14.44890625 -11.3125 15.1953125 C-13.41001309 19.56782056 -15.14343685 23.2503519 -15.0625 28.1875 C-15.041875 29.445625 -15.02125 30.70375 -15 32 C-10.72436721 31.52492969 -8.83439503 29.04697466 -6 26 C-4.66666667 24.66666667 -3.33333333 23.33333333 -2 22 C-2.1375656 27.50262388 -4.47601608 30.59598548 -8.08984375 34.484375 C-10 36 -10 36 -13.25 36.1875 C-15.99674992 35.00140344 -17.19265718 34.32372648 -19 32 C-21.16517779 22.25669992 -17.04416962 14.05896345 -12 6 C-6.29123319 -1.61313672 -6.29123319 -1.61313672 0 0 Z " fill="#CDCED1" transform="translate(158,135)"/>
<path d="M0 0 C0.99 0 1.98 0 3 0 C2.80701754 9.19298246 2.80701754 9.19298246 -0.375 12.375 C-1.24125 12.91125 -2.1075 13.4475 -3 14 C-4.76323505 16.12603185 -4.76323505 16.12603185 -6 18 C-7.32 17.67 -8.64 17.34 -10 17 C-10.33 15.35 -10.66 13.7 -11 12 C-11.86625 13.0209375 -11.86625 13.0209375 -12.75 14.0625 C-13.86375 15.0215625 -13.86375 15.0215625 -15 16 C-17.25 15.75 -17.25 15.75 -19 15 C-19.33569542 10.80380719 -19.18687561 8.38067254 -17.3125 4.5625 C-15 2 -15 2 -12.25 1.625 C-11.13625 1.810625 -11.13625 1.810625 -10 2 C-10 2.66 -10 3.32 -10 4 C-8.68 3.67 -7.36 3.34 -6 3 C-5.4375 4.9375 -5.4375 4.9375 -5 7 C-5.33 7.33 -5.66 7.66 -6 8 C-6.04080783 9.99958364 -6.04254356 12.00045254 -6 14 C-3.52813545 11.03653214 -2.33751639 8.45958311 -1.3125 4.75 C-1.06113281 3.85796875 -0.80976563 2.9659375 -0.55078125 2.046875 C-0.36902344 1.37140625 -0.18726563 0.6959375 0 0 Z " fill="#DEE0E2" transform="translate(177,149)"/>
<path d="M0 0 C0.66 0.66 1.32 1.32 2 2 C1.71325582 4.00720923 1.36920191 6.00630969 1 8 C0.90862317 10.67397469 0.95384993 13.32329566 1 16 C5.27563279 15.52492969 7.16560497 13.04697466 10 10 C12 8 12 8 14 6 C13.8624344 11.50262388 11.52398392 14.59598548 7.91015625 18.484375 C6 20 6 20 2.75 20.1875 C-0.01230343 18.99468716 -1.2181284 18.36896225 -3 16 C-3.3984375 13.22265625 -3.3984375 13.22265625 -3.375 10.0625 C-3.38273438 9.02222656 -3.39046875 7.98195312 -3.3984375 6.91015625 C-2.96171577 3.72037501 -2.14046092 2.34997693 0 0 Z " fill="#EEEFF0" transform="translate(142,151)"/>
<path d="M0 0 C0.66 0 1.32 0 2 0 C2 0.66 2 1.32 2 2 C2.99 2 3.98 2 5 2 C5 3.65 5 5.3 5 7 C4.67 5.68 4.34 4.36 4 3 C3.34 3 2.68 3 2 3 C2 4.32 2 5.64 2 7 C-1.3 7 -4.6 7 -8 7 C-8.33 6.34 -8.66 5.68 -9 5 C-9.33 5.66 -9.66 6.32 -10 7 C-11.65 7 -13.3 7 -15 7 C-15.33 5.35 -15.66 3.7 -16 2 C-10.31302429 1.08602176 -5.68697571 1.08602176 0 2 C0 1.34 0 0.68 0 0 Z " fill="#272A3C" transform="translate(119,280)"/>
<path d="M0 0 C0.99 0 1.98 0 3 0 C3.33 0.66 3.66 1.32 4 2 C5.97080157 2.74276031 5.97080157 2.74276031 8 3 C8.33 2.67 8.66 2.34 9 2 C10.66617115 1.95936168 12.33388095 1.957279 14 2 C14 3.65 14 5.3 14 7 C13.67 6.01 13.34 5.02 13 4 C12.34 4 11.68 4 11 4 C11 5.32 11 6.64 11 8 C10.01 7.67 9.02 7.34 8 7 C5.92268231 7.43975475 3.95892691 8.0756465 1.9375 8.72265625 C0 9 0 9 -3 7 C-3.6875 4.375 -3.6875 4.375 -4 2 C-3.34 1.67 -2.68 1.34 -2 1 C-1.34 1.33 -0.68 1.66 0 2 C0 1.34 0 0.68 0 0 Z " fill="#6B302D" transform="translate(177,174)"/>
<path d="M0 0 C0.33 0 0.66 0 1 0 C2.37435256 16.67887123 2.37435256 16.67887123 -0.93359375 22.265625 C-6.71421371 28 -6.71421371 28 -10 28 C-10 28.99 -10 29.98 -10 31 C-10.66 31 -11.32 31 -12 31 C-12 35.95 -12 40.9 -12 46 C-12.33 46 -12.66 46 -13 46 C-14.53472729 31.30072308 -14.53472729 31.30072308 -10.80859375 25.71484375 C-8.30803748 23.29965498 -5.73707119 21.13819066 -3 19 C-1.35079367 15.70158734 -1.33513293 12.0037687 -0.9375 8.375 C-0.84662109 7.57320313 -0.75574219 6.77140625 -0.66210938 5.9453125 C-0.43802347 3.96392132 -0.2185725 1.98200695 0 0 Z " fill="#2F0D17" transform="translate(95,58)"/>
<path d="M0 0 C0.99 0.33 1.98 0.66 3 1 C2.17791532 5.71517534 0.80735764 10.23479645 -0.5625 14.8125 C-0.79646484 15.60076172 -1.03042969 16.38902344 -1.27148438 17.20117188 C-1.84568404 19.13470136 -2.42257333 21.06743177 -3 23 C-3.99 23 -4.98 23 -6 23 C-5.19341879 19.35283085 -4.37874982 15.7075164 -3.5625 12.0625 C-3.33240234 11.02158203 -3.10230469 9.98066406 -2.86523438 8.90820312 C-2.64287109 7.91884766 -2.42050781 6.92949219 -2.19140625 5.91015625 C-1.98717041 4.99371338 -1.78293457 4.07727051 -1.57250977 3.13305664 C-1 1 -1 1 0 0 Z " fill="#A9ACB2" transform="translate(198,137)"/>
<path d="M0 0 C0.99 0.33 1.98 0.66 3 1 C2.21681311 4.91593446 0.60820142 8.36406635 -1 12 C1.64 10.02 4.28 8.04 7 6 C5.25618453 9.48763093 3.47193291 12.03368051 1 15 C-0.9375 14.3125 -0.9375 14.3125 -3 13 C-3.86029934 10.20402714 -4 7.92828926 -4 5 C-2 2.3125 -2 2.3125 0 0 Z " fill="#E1E3E6" transform="translate(184,149)"/>
<path d="M0 0 C0.66 0 1.32 0 2 0 C2 0.66 2 1.32 2 2 C3.32 2 4.64 2 6 2 C6.33 3.65 6.66 5.3 7 7 C3.78548731 8.60725635 0.56387464 8.05748185 -3 8 C-3.33 6.35 -3.66 4.7 -4 3 C-2.68 2.67 -1.36 2.34 0 2 C0 1.34 0 0.68 0 0 Z " fill="#6D2D2C" transform="translate(166,174)"/>
<path d="M0 0 C3.625 0.375 3.625 0.375 7 1 C7.33 2.65 7.66 4.3 8 6 C4.37 6 0.74 6 -3 6 C-2 2 -2 2 0 0 Z " fill="#111429" transform="translate(178,105)"/>
<path d="M0 0 C0.60546875 1.8125 0.60546875 1.8125 1 4 C-0.6875 7 -0.6875 7 -3 10 C-3.928125 11.2065625 -3.928125 11.2065625 -4.875 12.4375 C-7 14 -7 14 -10.25 13.75 C-11.61125 13.37875 -11.61125 13.37875 -13 13 C-13 12.34 -13 11.68 -13 11 C-11.96875 10.67 -10.9375 10.34 -9.875 10 C-5.08924504 8.0018742 -2.74620846 4.23499547 0 0 Z " fill="#DCDFE1" transform="translate(155,157)"/>
<path d="M0 0 C0.98871094 -0.01417969 1.97742188 -0.02835937 2.99609375 -0.04296875 C5.5625 0.1875 5.5625 0.1875 7.5625 2.1875 C5.65848862 4.09151138 4.22824314 5.12270439 1.515625 5.38671875 C-0.46983273 5.3761578 -2.4544914 5.28665043 -4.4375 5.1875 C-5.0975 3.8675 -5.7575 2.5475 -6.4375 1.1875 C-4.69900372 -0.55099628 -2.3588363 0.01533704 0 0 Z " fill="#0D1128" transform="translate(181.4375,116.8125)"/>
<path d="M0 0 C4.875 0.875 4.875 0.875 6 2 C6.4695122 8.33841463 6.4695122 8.33841463 4.625 10.9375 C3 12 3 12 1 12 C1.99 9.03 2.98 6.06 4 3 C2.8553125 3.7425 2.8553125 3.7425 1.6875 4.5 C-1 6 -1 6 -4 6 C-2.68 4.02 -1.36 2.04 0 0 Z " fill="#E5E7E9" transform="translate(153,134)"/>
<path d="M0 0 C0.86625 0.556875 0.86625 0.556875 1.75 1.125 C1.75 2.775 1.75 4.425 1.75 6.125 C-1.53696233 6.92453138 -2.96023192 7.22158936 -6.25 6.125 C-6.25 4.475 -6.25 2.825 -6.25 1.125 C-2.80384615 -1.09038462 -2.80384615 -1.09038462 0 0 Z " fill="#6A6C79" transform="translate(182.25,280.875)"/>
<path d="M0 0 C0.66 0 1.32 0 2 0 C2 0.99 2 1.98 2 3 C3.65 3.33 5.3 3.66 7 4 C6.67 5.32 6.34 6.64 6 8 C5.401875 7.814375 4.80375 7.62875 4.1875 7.4375 C1.83591238 6.77906313 1.83591238 6.77906313 -1 8 C-1.625 5.125 -1.625 5.125 -2 2 C-1.34 1.34 -0.68 0.68 0 0 Z " fill="#7B7E8C" transform="translate(150,279)"/>
<path d="M0 0 C0.9590625 0.2784375 0.9590625 0.2784375 1.9375 0.5625 C2.9584375 0.7790625 2.9584375 0.7790625 4 1 C4.33 0.67 4.66 0.34 5 0 C6.66617115 -0.04063832 8.33388095 -0.042721 10 0 C10 1.65 10 3.3 10 5 C9.67 4.01 9.34 3.02 9 2 C8.34 2 7.68 2 7 2 C7 3.32 7 4.64 7 6 C4.69 5.67 2.38 5.34 0 5 C-0.33 4.01 -0.66 3.02 -1 2 C-0.67 1.34 -0.34 0.68 0 0 Z " fill="#944137" transform="translate(181,176)"/>
<path d="M0 0 C0.66 0 1.32 0 2 0 C2 0.66 2 1.32 2 2 C2.99 2 3.98 2 5 2 C5 3.65 5 5.3 5 7 C4.67 5.68 4.34 4.36 4 3 C3.34 3 2.68 3 2 3 C2 4.32 2 5.64 2 7 C0.02 7 -1.96 7 -4 7 C-4.33 5.68 -4.66 4.36 -5 3 C-3.35 2.67 -1.7 2.34 0 2 C0 1.34 0 0.68 0 0 Z " fill="#A2A6AF" transform="translate(119,280)"/>
<path d="M0 0 C1.25541557 3.76624671 0.37061958 5.37188934 -1 9 C-0.34 9 0.32 9 1 9 C0.67 9.99 0.34 10.98 0 12 C-1.32 11.67 -2.64 11.34 -4 11 C-4.49230769 4.6 -4.49230769 4.6 -2 1.5625 C-1.34 1.046875 -0.68 0.53125 0 0 Z " fill="#EBEDEE" transform="translate(162,153)"/>
<path d="M0 0 C1.32 0.33 2.64 0.66 4 1 C2.52307692 7.52307692 2.52307692 7.52307692 -0.125 9.9375 C-0.74375 10.288125 -1.3625 10.63875 -2 11 C-2.28571429 3.57142857 -2.28571429 3.57142857 0 0 Z " fill="#181A2D" transform="translate(172,153)"/>
<path d="M0 0 C0.99 0.33 1.98 0.66 3 1 C2.39009109 4.55780196 1.4216319 7.6828589 0 11 C-0.66 11 -1.32 11 -2 11 C-2.28571429 3.57142857 -2.28571429 3.57142857 0 0 Z " fill="#EAECED" transform="translate(198,137)"/>
<path d="M0 0 C0.99 0.33 1.98 0.66 3 1 C2.6875 2.9375 2.6875 2.9375 2 5 C1.01 5.33 0.02 5.66 -1 6 C-1.66 6.66 -2.32 7.32 -3 8 C-3.66 8 -4.32 8 -5 8 C-3.62845496 5.04590299 -2.01136276 2.55991624 0 0 Z " fill="#D4D7DA" transform="translate(184,149)"/>
<path d="M0 0 C1.65 0 3.3 0 5 0 C5 1.98 5 3.96 5 6 C3.68 6.33 2.36 6.66 1 7 C0.67 4.69 0.34 2.38 0 0 Z " fill="#A1A5AE" transform="translate(213,282)"/>
<path d="M0 0 C0.66 0.33 1.32 0.66 2 1 C1.01 1.33 0.02 1.66 -1 2 C-1 2.66 -1 3.32 -1 4 C-4.83887763 5.48320272 -7.06204091 6.22419163 -11 5 C-9.21289414 4.13633178 -7.4201535 3.28431406 -5.625 2.4375 C-4.62726563 1.96183594 -3.62953125 1.48617187 -2.6015625 0.99609375 C-1.74304688 0.66738281 -0.88453125 0.33867187 0 0 Z " fill="#280D19" transform="translate(73,248)"/>
<path d="M0 0 C2.31 0 4.62 0 7 0 C6.67 1.65 6.34 3.3 6 5 C4.35 5 2.7 5 1 5 C0.67 3.35 0.34 1.7 0 0 Z " fill="#B1B5BE" transform="translate(88,282)"/>
<path d="M0 0 C0.33 0 0.66 0 1 0 C1 2.31 1 4.62 1 7 C-0.65 6.67 -2.3 6.34 -4 6 C-3.67 4.68 -3.34 3.36 -3 2 C-2.01 2 -1.02 2 0 2 C0 1.34 0 0.68 0 0 Z " fill="#A14739" transform="translate(166,174)"/>
<path d="M0 0 C0.66 0 1.32 0 2 0 C1.50769231 5.53846154 1.50769231 5.53846154 -1.0625 7.875 C-2.0215625 8.431875 -2.0215625 8.431875 -3 9 C-2.5020163 5.26512223 -2.12508244 3.18762365 0 0 Z " fill="#1B1C2D" transform="translate(164,153)"/>
<path d="M0 0 C2.31 0 4.62 0 7 0 C6.67 1.65 6.34 3.3 6 5 C4.35 5 2.7 5 1 5 C0.67 3.35 0.34 1.7 0 0 Z " fill="#B4B8C0" transform="translate(103,282)"/>
<path d="M0 0 C0.33 0 0.66 0 1 0 C1.33 4.62 1.66 9.24 2 14 C2.66 14 3.32 14 4 14 C3.67 14.99 3.34 15.98 3 17 C1.51171875 15.94921875 1.51171875 15.94921875 0 14 C-0.29296875 10.64453125 -0.29296875 10.64453125 -0.1875 6.8125 C-0.16042969 5.54019531 -0.13335937 4.26789063 -0.10546875 2.95703125 C-0.07066406 1.98121094 -0.03585938 1.00539062 0 0 Z " fill="#DE4E32" transform="translate(198,212)"/>
<path d="M0 0 C1.65 0 3.3 0 5 0 C4.67 1.65 4.34 3.3 4 5 C3.34 5 2.68 5 2 5 C2 5.66 2 6.32 2 7 C1.34 7 0.68 7 0 7 C0 4.69 0 2.38 0 0 Z " fill="#9A4539" transform="translate(139,174)"/>
<path d="M0 0 C0.99 0 1.98 0 3 0 C2.67 3.3 2.34 6.6 2 10 C1.34 9.67 0.68 9.34 0 9 C0 8.34 0 7.68 0 7 C-0.66 7 -1.32 7 -2 7 C-1.34 4.69 -0.68 2.38 0 0 Z " fill="#D4D6D8" transform="translate(177,149)"/>
<path d="M0 0 C0.33 0 0.66 0 1 0 C1 2.31 1 4.62 1 7 C-0.32 7 -1.64 7 -3 7 C-3 5.35 -3 3.7 -3 2 C-2.01 2 -1.02 2 0 2 C0 1.34 0 0.68 0 0 Z " fill="#B2B5BD" transform="translate(173,280)"/>
<path d="M0 0 C1.98 0.495 1.98 0.495 4 1 C4 2.32 4 3.64 4 5 C2.35 4.67 0.7 4.34 -1 4 C-0.67 2.68 -0.34 1.36 0 0 Z " fill="#934236" transform="translate(145,176)"/>
<path d="M0 0 C0.66 0.33 1.32 0.66 2 1 C1.67 2.32 1.34 3.64 1 5 C-1.97 4.505 -1.97 4.505 -5 4 C-5 3.34 -5 2.68 -5 2 C-2.625 0.9375 -2.625 0.9375 0 0 Z " fill="#D7D8DB" transform="translate(147,166)"/>
<path d="M0 0 C1.98 0.495 1.98 0.495 4 1 C3.67 2.32 3.34 3.64 3 5 C1.68 4.67 0.36 4.34 -1 4 C-0.67 2.68 -0.34 1.36 0 0 Z " fill="#A7A9B4" transform="translate(153,282)"/>
<path d="M0 0 C0.99 0.33 1.98 0.66 3 1 C3.33 2.98 3.66 4.96 4 7 C3.01 7 2.02 7 1 7 C0 6 0 6 -0.0625 2.9375 C-0.041875 1.968125 -0.02125 0.99875 0 0 Z " fill="#E3E5E7" transform="translate(139,161)"/>
<path d="M0 0 C1.32 0 2.64 0 4 0 C4 1.65 4 3.3 4 5 C2.68 5 1.36 5 0 5 C0 3.35 0 1.7 0 0 Z " fill="#B0B4BB" transform="translate(137,282)"/>
<path d="M0 0 C1.65 0 3.3 0 5 0 C5 0.66 5 1.32 5 2 C5.66 2.33 6.32 2.66 7 3 C6.34 3 5.68 3 5 3 C4.67 3.66 4.34 4.32 4 5 C4 4.01 4 3.02 4 2 C2.02 2.66 0.04 3.32 -2 4 C-1.34 2.68 -0.68 1.36 0 0 Z " fill="#C1C3C8" transform="translate(162,151)"/>
<path d="M0 0 C-1.36944102 2.94956528 -2.87830409 5.52468811 -5 8 C-5.66 8 -6.32 8 -7 8 C-4.18918919 0 -4.18918919 0 0 0 Z " fill="#E0E0E4" transform="translate(175,101)"/>
<path d="M0 0 C1.32 0.33 2.64 0.66 4 1 C4 2.32 4 3.64 4 5 C2.68 5 1.36 5 0 5 C0 3.35 0 1.7 0 0 Z " fill="#B3B6BE" transform="translate(176,282)"/>
<path d="M0 0 C0.66 0 1.32 0 2 0 C2.33 1.32 2.66 2.64 3 4 C1.02 5.32 -0.96 6.64 -3 8 C-2.690625 7.236875 -2.38125 6.47375 -2.0625 5.6875 C-1.32106407 3.81210323 -0.63771783 1.91315348 0 0 Z " fill="#EDF0F0" transform="translate(175,156)"/>
<path d="M0 0 C0.99 0 1.98 0 3 0 C2.25 4.75 2.25 4.75 0 7 C-0.66 5.35 -1.32 3.7 -2 2 C-1.34 1.34 -0.68 0.68 0 0 Z " fill="#181A2A" transform="translate(154,137)"/>
<path d="M0 0 C1.125 3.75 1.125 3.75 0 6 C1.32 6.66 2.64 7.32 4 8 C2.02 8 0.04 8 -2 8 C-1.47731534 5.23723823 -0.89130413 2.6739124 0 0 Z " fill="#2A1018" transform="translate(33,286)"/>
<path d="M0 0 C0.99 0.33 1.98 0.66 3 1 C1.68 3.31 0.36 5.62 -1 8 C-1.93065133 5.39417629 -2.14917407 4.35801776 -1.0625 1.75 C-0.711875 1.1725 -0.36125 0.595 0 0 Z " fill="#272836" transform="translate(180,149)"/>
<path d="M0 0 C1.98 0 3.96 0 6 0 C6 1.98 6 3.96 6 6 C5.01 6 4.02 6 3 6 C3.33 4.35 3.66 2.7 4 1 C3.01 1.33 2.02 1.66 1 2 C0.67 1.34 0.34 0.68 0 0 Z " fill="#1D2132" transform="translate(91,281)"/>
<path d="M0 0 C2.475 0.99 2.475 0.99 5 2 C5 2.99 5 3.98 5 5 C2.69 4.01 0.38 3.02 -2 2 C-1.34 1.34 -0.68 0.68 0 0 Z " fill="#E04C2B" transform="translate(257,248)"/>
<path d="M0 0 C0.33 1.32 0.66 2.64 1 4 C-0.65 5.32 -2.3 6.64 -4 8 C-4.66 7.67 -5.32 7.34 -6 7 C-2.25 1.125 -2.25 1.125 0 0 Z " fill="#1B1E31" transform="translate(157,160)"/>
<path d="M0 0 C0.33 0 0.66 0 1 0 C0.67 2.64 0.34 5.28 0 8 C-0.99 8 -1.98 8 -3 8 C-2.01 5.36 -1.02 2.72 0 0 Z " fill="#D3D5D9" transform="translate(195,152)"/>
<path d="M0 0 C2 3 2 3 2 5 C0 6.625 0 6.625 -2 8 C-2.66 7.67 -3.32 7.34 -4 7 C-2.68 4.69 -1.36 2.38 0 0 Z " fill="#111428" transform="translate(151,140)"/>
</svg>
